# xmcd CD database file
#
# Track frame offsets:
#	150
#	19755
#	34013
#	48111
#	65994
#	86232
#	103317
#	122714
#	148221
#	162723
#	192438
#	219048
#	232973
#	264403
#	275290
#	314228
#
# Disc length: 4440 seconds
#
# Revision: 0
# Processed by: cddbd v1.4PL0 Copyright (c) Steve Scherf et al.
# Submitted via: CDex 1.50
#
DISCID=f4115610
DTITLE=Jazz - the legend of Blue Note2
DYEAR=2003
DGENRE=Jazz
TTITLE0=Don't Let The Teardrops Rust Your Shining Heart
TTITLE1=Ruby My Dear
TTITLE2=Unforgettable
TTITLE3=Because I Love You
TTITLE4=Very Special
TTITLE5=Yesterdays
TTITLE6=Spring Can Really Hang You Up The Most
TTITLE7=Long Ago and Far Away
TTITLE8=I'm Just A Lucky So And So
TTITLE9=See See Rider
TTITLE10=Now See How You Are
TTITLE11=That Old Feeling
TTITLE12=Trane's Blues
TTITLE13=Come Spring
TTITLE14=Don't Explain
TTITLE15=Data
EXTD=YEAR: 2003
EXTT0=
EXTT1=
EXTT2=
EXTT3=
EXTT4=
EXTT5=
EXTT6=
EXTT7=
EXTT8=
EXTT9=
EXTT10=
EXTT11=
EXTT12=
EXTT13=
EXTT14=
EXTT15=
PLAYORDER=
